<?xml version="1.0" encoding="utf-8"?>
<!-- Svg Vector Icons : http://www.onlinewebfonts.com/icon -->
<!DOCTYPE svg PUBLIC "-//W3C//DTD SVG 1.1//EN" "http://www.w3.org/Graphics/SVG/1.1/DTD/svg11.dtd">
<svg version="1.1" xmlns="http://www.w3.org/2000/svg" xmlns:xlink="http://www.w3.org/1999/xlink" x="0px" y="0px" viewBox="0 0 1000 1000" enable-background="new 0 0 1000 1000" xml:space="preserve">
<metadata> Svg Vector Icons : http://www.onlinewebfonts.com/icon </metadata>
<g><g transform="translate(0.000000,511.000000) scale(0.100000,-0.100000)"><path style="fill:#2E0854" d="M5454.1,4229.1c-1204.3-135-2271.5-790.9-2937.9-1801.2c-489.3-742.4-727.6-1670.4-649.6-2526.7c54.8-601.1,242.5-1041.9,605.3-1425.8c196.1-208.8,379.6-341.7,651.7-476.6c632.7-314.3,1347.7-314.3,1969.9-2.1C5863.3-1615.1,6339.9-841.1,6339.9,23.6c0,639-318.5,1124.1-877.4,1332.9c-84.4,31.6-156.1,65.4-156.1,71.7c0,8.4,78,40.1,175,73.8c151.9,50.6,204.6,59,415.5,59c208.8,0,265.7-8.4,411.3-59c423.9-145.5,750.8-472.4,875.3-875.3c126.6-404.9,94.9-1069.3-75.9-1598.7c-75.9-240.4-280.5-643.3-432.4-858.4c-73.8-103.3-225.7-280.5-335.4-390.2c-442.9-445-963.8-727.6-1607.1-871c-187.7-42.2-274.2-48.5-628.5-48.5c-341.7,2.1-447.1,10.5-626.4,48.5c-1136.8,246.8-2039.5,1058.8-2379,2144.9c-40.1,128.6-86.5,307.9-101.2,400.7c-27.4,160.3-31.6,168.7-80.1,162.4c-367-38-809.9-90.7-816.2-99.1c-4.2-4.2,2.1-73.8,14.8-151.9C457.7-2661.2,2214.6-4105.9,4252-4030c774,29.5,1455.3,248.9,2098.5,679.1c1198,799.3,1887.6,2206.1,1782.2,3627.6c-33.8,451.3-118.1,740.3-314.3,1073.5c-514.6,877.4-1569.2,1295-2554.1,1010.2C4581,2162.2,4001,1599.1,3771.1,909.4c-109.7-329-143.4-788.8-78-1092.5c92.8-440.8,445-824.7,902.7-984.9l109.7-38l-101.2-46.4c-227.8-101.2-497.7-128.7-767.7-71.7c-413.4,84.4-752.9,343.8-934.3,715c-109.7,221.5-145.5,367-160.3,672.8C2691.2,1008.6,3092,1953.4,3807,2579.8c428.1,373.3,887.9,603.2,1465.8,727.6c307.9,67.5,942.7,67.5,1240.1,2.1c609.5-137.1,1128.4-411.3,1560.7-824.6c502-483,826.8-1088.3,928-1735.8c25.3-158.2,27.4-164.5,80.1-154c29.5,4.2,223.6,27.4,432.4,50.6c206.7,25.3,381.7,46.4,383.8,50.6c12.7,12.7-35.9,293.2-88.6,497.7c-263.6,1048.2-938.6,1946.7-1879.2,2501.4C7189.9,4132.1,6297.8,4324,5454.1,4229.1z"/></g></g>
</svg>